<svg xmlns="http://www.w3.org/2000/svg" viewBox="0 0 253.532 253.532">
  <path d="M172.612 105.686a5 5 0 00-5 5v11.032H154.69v-11.032a5 5 0 00-10 0v11.032h-12.924v-11.032a5 5 0 00-10 0v11.032h-12.924v-11.032a5 5 0 00-10 0v11.032H85.921v-11.032a5 5 0 00-10 0v32.161a5 5 0 0010 0v-11.129h12.922v11.129a5 5 0 0010 0v-11.129h12.924v11.129a5 5 0 0010 0v-11.129h12.924v11.129a5 5 0 0010 0v-11.129h12.922v11.129a5 5 0 0010 0v-32.161a5 5 0 00-5.001-5z"/>
  <path d="M215.65 72.706c-15.39-11.744-47.402-31.446-88.883-31.446-41.482 0-73.494 19.702-88.884 31.445C14.87 90.266 0 111.486 0 126.766c0 15.279 14.87 36.499 37.882 54.061 15.39 11.744 47.402 31.446 88.884 31.446 41.481 0 73.493-19.702 88.883-31.445 23.013-17.561 37.882-38.781 37.882-54.06s-14.868-36.501-37.881-54.062zM15 126.766c0-7.866 9.393-23.346 26.905-38.065v76.131C24.392 150.111 15 134.631 15 126.766zm41.905 49.057V77.709c15.67-9.999 40.106-21.449 69.862-21.449 29.755 0 54.191 11.45 69.86 21.449v98.115c-15.669 9.999-40.105 21.449-69.86 21.449-29.756-.001-54.192-11.451-69.862-21.45zm154.722-10.991V88.701c17.513 14.72 26.905 30.2 26.905 38.066s-9.392 23.346-26.905 38.065z"/>
</svg>