<?xml version="1.0" encoding="iso-8859-1"?>
<!-- Generator: Adobe Illustrator 18.0.0, SVG Export Plug-In . SVG Version: 6.00 Build 0)  -->
<!DOCTYPE svg PUBLIC "-//W3C//DTD SVG 1.1//EN" "http://www.w3.org/Graphics/SVG/1.1/DTD/svg11.dtd">
<svg version="1.1" id="Capa_1" xmlns="http://www.w3.org/2000/svg" xmlns:xlink="http://www.w3.org/1999/xlink" x="0px" y="0px"
	 viewBox="0 0 267.651 267.651" style="enable-background:new 0 0 267.651 267.651;" xml:space="preserve">
<g>
	<path d="M265.454,128.524l-18.08-18.082c-2.929-2.929-7.678-2.93-10.606-0.001c-2.93,2.929-2.93,7.678-0.001,10.606l5.277,5.278
		h-32.793c-1.775-26.501-12.939-51.173-31.898-70.131C156.618,35.46,129.049,24.041,99.723,24.04c-1.989,0-3.896,0.79-5.304,2.196
		c-1.406,1.407-2.196,3.314-2.196,5.304v94.785H58.686l-15.882-15.884c-2.929-2.929-7.678-2.93-10.607-0.001
		c-2.93,2.929-2.93,7.678-0.001,10.606l12.777,12.779l-12.777,12.779c-2.929,2.929-2.929,7.678,0.001,10.606
		c1.464,1.464,3.384,2.196,5.303,2.196c1.919,0,3.839-0.732,5.304-2.197l15.884-15.886h33.535v94.785
		c0,1.989,0.79,3.896,2.196,5.304c1.407,1.406,3.314,2.196,5.304,2.196c58.012-0.001,105.652-45.235,109.524-102.285h32.8
		l-5.279,5.28c-2.929,2.929-2.929,7.678,0.001,10.606c1.464,1.464,3.384,2.196,5.303,2.196c1.919,0,3.839-0.732,5.304-2.197
		l18.08-18.082C268.383,136.2,268.383,131.452,265.454,128.524z M107.223,39.33c22.493,1.749,43.401,11.349,59.524,27.472
		c16.123,16.122,25.719,37.032,27.467,59.523h-86.991V39.33z M107.223,228.317v-86.991h86.965
		C190.541,187.619,153.517,224.675,107.223,228.317z"/>
	<path d="M30.884,128.524l-18.08-18.082c-2.929-2.929-7.678-2.93-10.607-0.001c-2.93,2.929-2.93,7.678-0.001,10.606l12.777,12.779
		L2.196,146.606c-2.929,2.929-2.929,7.678,0.001,10.606c1.464,1.464,3.384,2.196,5.303,2.196c1.919,0,3.839-0.732,5.304-2.197
		l18.08-18.082C33.813,136.2,33.813,131.452,30.884,128.524z"/>
</g>
<g>
</g>
<g>
</g>
<g>
</g>
<g>
</g>
<g>
</g>
<g>
</g>
<g>
</g>
<g>
</g>
<g>
</g>
<g>
</g>
<g>
</g>
<g>
</g>
<g>
</g>
<g>
</g>
<g>
</g>
</svg>
