<?xml version="1.0" encoding="iso-8859-1"?>
<!-- Generator: Adobe Illustrator 18.0.0, SVG Export Plug-In . SVG Version: 6.00 Build 0)  -->
<!DOCTYPE svg PUBLIC "-//W3C//DTD SVG 1.1//EN" "http://www.w3.org/Graphics/SVG/1.1/DTD/svg11.dtd">
<svg version="1.1" id="Capa_1" xmlns="http://www.w3.org/2000/svg" xmlns:xlink="http://www.w3.org/1999/xlink" x="0px" y="0px"
	 viewBox="0 0 213.946 213.946" style="enable-background:new 0 0 213.946 213.946;" xml:space="preserve">
<path d="M203.745,10.543c-0.12-0.13-0.246-0.255-0.375-0.375c-7.021-6.541-16.18-10.143-25.786-10.143
	c-10.104,0-19.603,3.935-26.746,11.08L138.61,23.331L17.508,72.825C5.466,77.747,1.578,85.541,0.437,91.212
	c-1.858,9.226,2.282,19.982,11.072,28.769c6.969,6.969,16.741,10.808,27.519,10.808c1.652,0,3.309-0.089,4.96-0.264
	c-2.149,10.554,0.675,21.916,8.545,30.435c0.134,0.145,0.274,0.285,0.419,0.419c6.421,5.932,14.777,9.199,23.53,9.199
	c2.352,0,4.666-0.232,6.92-0.687c-1.287,12.31,2.334,24.315,10.529,32.511c7.317,7.319,16.154,11.518,24.242,11.518h0.001
	c5.884,0,16.685-2.277,22.913-17.518l49.495-121.102l12.227-12.226C217.289,48.597,217.7,25.521,203.745,10.543z M161.119,107.744
	l-11.063-11.062l21.357-27.798l3.967,3.963L161.119,107.744z M140.712,157.674l-21.217-21.217l21.344-27.779l14.125,14.125
	L140.712,157.674z M91.11,58.948l14.125,14.125l-27.78,21.344L56.238,73.2L91.11,58.948z M141.043,38.541l3.973,3.969
	l-27.783,21.346L106.17,52.793L141.043,38.541z M115.933,83.771l14.21,14.21l-21.345,27.779l-20.646-20.646L115.933,83.771z
	 M139.359,85.984l-11.43-11.431l27.789-21.351l4.994,4.99L139.359,85.984z M39.027,115.79c-6.771,0-12.776-2.278-16.912-6.414
	c-5.074-5.073-7.812-11.04-6.975-15.203c0.608-3.019,3.313-5.53,8.043-7.462l17.996-7.355l24.279,24.279l-10.675,8.202
	C49.809,114.417,44.375,115.79,39.027,115.79z M76.482,155.579c-4.869,0-9.521-1.78-13.132-5.017
	c-6.91-7.703-6.679-19.336,0.506-26.78l12.301-9.451l23.425,23.425l-9.448,12.297C86.446,153.612,81.618,155.579,76.482,155.579z
	 M127.202,190.729c-3.348,8.192-7.624,8.192-9.028,8.192c-4.019-0.001-9.243-2.73-13.636-7.124
	c-7.572-7.572-8.549-20.946-2.454-32.679l8.194-10.665l24.278,24.279L127.202,190.729z M192.202,52.468l-7.994,7.994l-30.773-30.744
	l8.009-8.008c4.311-4.312,10.043-6.686,16.14-6.686c5.711,0,11.157,2.107,15.366,5.939
	C201.187,30.006,200.878,43.793,192.202,52.468z"/>
<g>
</g>
<g>
</g>
<g>
</g>
<g>
</g>
<g>
</g>
<g>
</g>
<g>
</g>
<g>
</g>
<g>
</g>
<g>
</g>
<g>
</g>
<g>
</g>
<g>
</g>
<g>
</g>
<g>
</g>
</svg>
