<svg xmlns="http://www.w3.org/2000/svg" viewBox="0 0 219.57 219.57">
  <path d="M109.779 0C49.247 0 0 49.25 0 109.787.002 170.321 49.25 219.57 109.781 219.57c29.326-.002 56.896-11.422 77.634-32.157 20.737-20.736 32.157-48.305 32.155-77.627C219.57 49.251 170.32.001 109.779 0zM15 109.786c0-24.618 9.436-47.072 24.877-63.941a94.569 94.569 0 0112.565 17.186l-2.243 1.046a7.5 7.5 0 00-3.627 9.967 7.5 7.5 0 009.967 3.627l2.261-1.054c3.04 8.162 4.941 16.777 5.626 25.666h-2.439a7.5 7.5 0 00-7.5 7.5 7.5 7.5 0 007.5 7.5h2.439a94.134 94.134 0 01-5.626 25.668l-2.261-1.054a7.502 7.502 0 00-9.967 3.628 7.5 7.5 0 003.627 9.967l2.242 1.046a94.602 94.602 0 01-12.567 17.186C24.436 156.855 15.001 134.402 15 109.786zm35.831 74.163a109.73 109.73 0 0015.147-21.099l2.77 1.292a7.475 7.475 0 003.165.705 7.503 7.503 0 006.802-4.332 7.5 7.5 0 00-3.627-9.967l-2.77-1.291a109.825 109.825 0 007.129-31.973h2.996a7.5 7.5 0 007.5-7.5 7.5 7.5 0 00-7.5-7.5h-2.996a109.882 109.882 0 00-7.128-31.971l2.769-1.291a7.5 7.5 0 10-6.34-13.594l-2.77 1.292a109.769 109.769 0 00-15.146-21.099C67.026 22.72 87.519 15 109.783 15c22.265 0 42.758 7.721 58.952 20.62a109.683 109.683 0 00-15.145 21.098l-2.77-1.292a7.5 7.5 0 10-6.34 13.594l2.769 1.291a109.868 109.868 0 00-7.128 31.971h-2.996a7.5 7.5 0 00-7.5 7.5 7.5 7.5 0 007.5 7.5h2.996a109.832 109.832 0 007.129 31.973l-2.77 1.291a7.5 7.5 0 00-3.627 9.967 7.5 7.5 0 009.967 3.627l2.77-1.292a109.73 109.73 0 0015.182 21.134c-16.713 13.337-37.293 20.585-58.99 20.586-22.264.002-42.758-7.719-58.951-20.619zm128.893-10.194a94.58 94.58 0 01-12.597-17.218l2.242-1.046a7.5 7.5 0 10-6.34-13.595l-2.261 1.054c-3.04-8.163-4.941-16.778-5.626-25.668h2.44a7.5 7.5 0 007.5-7.5 7.5 7.5 0 00-7.5-7.5h-2.44c.685-8.889 2.586-17.504 5.626-25.666l2.261 1.054a7.475 7.475 0 003.165.705 7.503 7.503 0 006.802-4.332 7.5 7.5 0 00-3.627-9.967l-2.243-1.046a94.596 94.596 0 0112.565-17.185c15.442 16.869 24.879 39.323 24.879 63.941.002 23.905-8.793 46.456-24.846 63.969z"/>
</svg>