<svg xmlns="http://www.w3.org/2000/svg" viewBox="0 0 219.57 219.57">
  <path d="M219.57 109.781v-.001c0-29.324-11.419-56.892-32.153-77.626C166.682 11.42 139.111 0 109.785 0 49.249.002 0 49.249 0 109.781c.002 29.326 11.423 56.896 32.158 77.633 20.735 20.736 48.299 32.155 77.619 32.155h.008c60.536 0 109.785-49.251 109.785-109.787v-.001zm-35.619 58.955c-20.131-18.444-46.722-28.883-74.166-28.883-27.459 0-54.064 10.452-74.199 28.917-11.79-14.774-18.818-32.571-20.291-51.49h188.98c-1.523 19.359-8.887 37.097-20.324 51.456zm-81.666 35.54c-21.097-1.64-40.801-10.19-56.47-24.554 15.649-14.402 35.282-22.947 56.47-24.58v49.134zm15-49.133c21.175 1.631 40.797 10.165 56.44 24.549-15.14 13.859-34.777 22.879-56.44 24.583v-49.132zM15.297 102.281c1.523-19.356 8.887-37.093 20.324-51.451 20.132 18.445 46.722 28.884 74.164 28.884 27.461 0 54.067-10.453 74.203-28.918 11.79 14.772 18.816 32.566 20.287 51.484H15.297zm101.988-86.986c21.1 1.641 40.805 10.189 56.474 24.551-15.649 14.403-35.284 22.948-56.474 24.58V15.295zm-15 49.131c-21.173-1.631-40.793-10.165-56.438-24.55 15.139-13.857 34.775-22.875 56.438-24.579v49.129z"/>
</svg>