<?xml version="1.0" encoding="iso-8859-1"?>
<!-- Generator: Adobe Illustrator 18.0.0, SVG Export Plug-In . SVG Version: 6.00 Build 0)  -->
<!DOCTYPE svg PUBLIC "-//W3C//DTD SVG 1.1//EN" "http://www.w3.org/Graphics/SVG/1.1/DTD/svg11.dtd">
<svg version="1.1" id="Capa_1" xmlns="http://www.w3.org/2000/svg" xmlns:xlink="http://www.w3.org/1999/xlink" x="0px" y="0px"
	 viewBox="0 0 241.676 241.676" style="enable-background:new 0 0 241.676 241.676;" xml:space="preserve">
<g>
	<path d="M120.838,104.968c14.91,0,27.04-12.13,27.04-27.039s-12.13-27.039-27.04-27.039c-14.909,0-27.039,12.13-27.039,27.039
		S105.929,104.968,120.838,104.968z M120.838,65.889c6.639,0,12.04,5.4,12.04,12.039c0,6.639-5.401,12.039-12.04,12.039
		c-6.638,0-12.039-5.4-12.039-12.039C108.799,71.29,114.2,65.889,120.838,65.889z"/>
	<path d="M176.825,128.106c0-14.909-12.13-27.039-27.04-27.039c-14.91,0-27.04,12.13-27.04,27.039
		c0,14.91,12.13,27.041,27.04,27.041C164.696,155.147,176.825,143.016,176.825,128.106z M149.785,140.147
		c-6.639,0-12.04-5.401-12.04-12.041c0-6.639,5.401-12.039,12.04-12.039c6.639,0,12.04,5.4,12.04,12.039
		C161.825,134.746,156.424,140.147,149.785,140.147z"/>
	<path d="M118.931,128.106c0-14.909-12.13-27.039-27.04-27.039c-14.909,0-27.039,12.13-27.039,27.039
		c0,14.91,12.13,27.041,27.039,27.041C106.801,155.147,118.931,143.016,118.931,128.106z M91.891,140.147
		c-6.638,0-12.039-5.401-12.039-12.041c0-6.639,5.401-12.039,12.039-12.039c6.639,0,12.04,5.4,12.04,12.039
		C103.931,134.746,98.53,140.147,91.891,140.147z"/>
	<path d="M178.733,151.247c-14.909,0-27.039,12.13-27.039,27.039c0,14.909,12.13,27.039,27.039,27.039
		c14.909,0,27.039-12.13,27.039-27.039C205.772,163.377,193.642,151.247,178.733,151.247z M178.733,190.325
		c-6.638,0-12.039-5.4-12.039-12.039c0-6.639,5.401-12.039,12.039-12.039s12.039,5.4,12.039,12.039
		C190.772,184.925,185.371,190.325,178.733,190.325z"/>
	<path d="M62.946,151.247c-14.91,0-27.04,12.13-27.04,27.039c0,14.909,12.13,27.039,27.04,27.039
		c14.909,0,27.038-12.13,27.038-27.039C89.984,163.377,77.854,151.247,62.946,151.247z M62.946,190.325
		c-6.639,0-12.04-5.4-12.04-12.039c0-6.639,5.401-12.039,12.04-12.039c6.638,0,12.038,5.4,12.038,12.039
		C74.984,184.925,69.583,190.325,62.946,190.325z"/>
	<path d="M120.838,151.247c-14.909,0-27.039,12.13-27.039,27.039c0,14.909,12.13,27.039,27.039,27.039
		c14.91,0,27.04-12.13,27.04-27.039C147.878,163.377,135.748,151.247,120.838,151.247z M120.838,190.325
		c-6.638,0-12.039-5.4-12.039-12.039c0-6.639,5.401-12.039,12.039-12.039c6.639,0,12.04,5.4,12.04,12.039
		C132.878,184.925,127.477,190.325,120.838,190.325z"/>
	<path d="M234.238,172.196L154.589,34.243c-8.646-14.975-20.632-23.222-33.75-23.222s-25.105,8.246-33.751,23.222L7.439,172.196
		c-8.646,14.977-9.795,29.48-3.236,40.842c6.559,11.36,19.695,17.617,36.987,17.617h159.297c17.293,0,30.428-6.257,36.987-17.617
		C244.033,201.677,242.884,187.173,234.238,172.196z M224.484,205.538c-3.767,6.524-12.289,10.117-23.997,10.117H41.19
		c-11.708,0-20.23-3.593-23.997-10.117c-3.767-6.524-2.618-15.702,3.236-25.842l79.648-137.953
		c5.854-10.139,13.227-15.722,20.761-15.722c7.534,0,14.906,5.583,20.76,15.722l79.648,137.953
		C227.101,189.836,228.251,199.013,224.484,205.538z"/>
</g>
<g>
</g>
<g>
</g>
<g>
</g>
<g>
</g>
<g>
</g>
<g>
</g>
<g>
</g>
<g>
</g>
<g>
</g>
<g>
</g>
<g>
</g>
<g>
</g>
<g>
</g>
<g>
</g>
<g>
</g>
</svg>
