<svg xmlns="http://www.w3.org/2000/svg" viewBox="0 0 219.57 219.57">
  <path d="M187.416 32.154C166.681 11.419 139.11 0 109.784 0 49.249.002 0 49.25 0 109.782c.002 29.326 11.422 56.896 32.157 77.633 20.735 20.736 48.299 32.155 77.62 32.155h.007c60.535 0 109.785-49.25 109.786-109.787.001-29.324-11.418-56.893-32.154-77.629zM109.784 204.57h-.007c-25.312 0-49.112-9.86-67.013-27.762C24.861 158.905 15.001 135.1 15 109.781 15 57.521 57.52 15.002 109.784 15c25.32 0 49.124 9.859 67.026 27.761 17.902 17.902 27.761 41.704 27.76 67.022-.001 52.266-42.522 94.787-94.786 94.787z"/>
  <path d="M109.785 77.917c-10.231 0-18.556 8.324-18.556 18.555 0 10.232 8.324 18.557 18.556 18.557 10.231 0 18.556-8.325 18.556-18.557 0-10.231-8.324-18.555-18.556-18.555zm0 24.611a6.063 6.063 0 01-6.056-6.057 6.063 6.063 0 016.056-6.055 6.062 6.062 0 016.056 6.055 6.063 6.063 0 01-6.056 6.057zM132.519 38.542c-10.231 0-18.556 8.324-18.556 18.556s8.324 18.556 18.556 18.556 18.556-8.324 18.556-18.556-8.325-18.556-18.556-18.556zm0 24.611a6.063 6.063 0 01-6.056-6.056c0-3.339 2.717-6.056 6.056-6.056s6.056 2.717 6.056 6.056a6.064 6.064 0 01-6.056 6.056zM105.608 57.098c0-10.231-8.324-18.556-18.556-18.556-10.231 0-18.556 8.324-18.556 18.556s8.324 18.556 18.556 18.556c10.232-.001 18.556-8.325 18.556-18.556zm-18.555 6.055a6.063 6.063 0 01-6.056-6.056 6.063 6.063 0 016.056-6.056 6.063 6.063 0 016.056 6.056 6.063 6.063 0 01-6.056 6.056z"/>
</svg>