<svg xmlns="http://www.w3.org/2000/svg" viewBox="0 0 203.508 203.508">
  <path d="M147.36 0H97.015C72.741 0 52.993 19.748 52.993 44.021V66.91c-23.121 3.615-40.867 23.668-40.867 47.788 0 1.989.79 3.897 2.197 5.303l40.867 40.867a7.497 7.497 0 005.303 2.197h6.211v32.943a7.5 7.5 0 007.5 7.5h73.156a7.5 7.5 0 007.5-7.5v-33.596c20.712-3.572 36.521-21.652 36.521-43.367V44.021C191.382 19.748 171.634 0 147.36 0zm-7.5 188.508H81.704v-25.443h58.156v25.443zm36.522-69.463c0 16.002-13.019 29.02-29.021 29.02H63.6l-36.342-36.342c1.287-14.489 11.875-26.347 25.736-29.543v32.518a7.5 7.5 0 0015 0V44.021C67.993 28.018 81.012 15 97.015 15h50.346c16.003 0 29.021 13.018 29.021 29.021v75.024z"/>
</svg>