<?xml version="1.0" encoding="iso-8859-1"?>
<!-- Generator: Adobe Illustrator 18.0.0, SVG Export Plug-In . SVG Version: 6.00 Build 0)  -->
<!DOCTYPE svg PUBLIC "-//W3C//DTD SVG 1.1//EN" "http://www.w3.org/Graphics/SVG/1.1/DTD/svg11.dtd">
<svg version="1.1" id="Capa_1" xmlns="http://www.w3.org/2000/svg" xmlns:xlink="http://www.w3.org/1999/xlink" x="0px" y="0px"
	 viewBox="0 0 215.559 215.559" style="enable-background:new 0 0 215.559 215.559;" xml:space="preserve">
<path d="M203.304,82.421c-0.179-0.168-0.362-0.332-0.558-0.482l-29.672-25.878c-1.366-1.192-3.117-1.848-4.93-1.848h-36.556
	l-8.544-22.31c-1.111-2.901-3.896-4.817-7.004-4.817H47.418c-4.143,0-7.5,3.358-7.5,7.5c0,4.143,3.357,7.5,7.5,7.5h63.464
	l4.645,12.127H47.418c-1.813,0-3.563,0.656-4.93,1.848l-30,26.164l0,0C2.183,90.629,0,99.135,0,104.809v37.158
	c0,30.207,55.53,46.506,107.779,46.506s107.779-16.299,107.779-46.506v-37.158C215.559,99.179,213.402,90.762,203.304,82.421z
	 M50.229,69.213h76.177c0.008,0,0.017,0.002,0.025,0.002c0.015,0,0.029-0.002,0.043-0.002h38.858l12.802,11.164H37.428
	L50.229,69.213z M200.559,141.967c0,13.156-35.296,31.506-92.779,31.506S15,155.123,15,141.967v-37.158
	c0-3.574,2.528-6.903,5.213-9.432h175.134c2.685,2.528,5.212,5.857,5.212,9.432V141.967z"/>
<g>
</g>
<g>
</g>
<g>
</g>
<g>
</g>
<g>
</g>
<g>
</g>
<g>
</g>
<g>
</g>
<g>
</g>
<g>
</g>
<g>
</g>
<g>
</g>
<g>
</g>
<g>
</g>
<g>
</g>
</svg>
