<svg xmlns="http://www.w3.org/2000/svg" viewBox="0 0 218.465 218.465">
  <path d="M216.269 2.197a7.502 7.502 0 00-10.607 0l-35.52 35.52a28.213 28.213 0 00-14.051-3.718c-7.579 0-14.705 2.951-20.065 8.31-3.738 3.739-21.736 24.05-40.919 47.046l-36.559-9.788a7.51 7.51 0 00-7.243 1.941L2.197 130.617a7.5 7.5 0 003.363 12.549l40.472 10.837c-5.754 9.8-7.359 16.473-2.7 21.132 1.233 1.233 3.42 2.703 6.835 2.703 1.998 0 5.064-.004 14.288-5.433l10.843 40.498a7.5 7.5 0 0012.548 3.365l49.109-49.108a7.503 7.503 0 001.941-7.243l-9.787-36.557c23.21-19.36 43.397-37.273 47.047-40.921 9.227-9.228 10.751-23.278 4.586-34.108l35.526-35.526a7.502 7.502 0 00.001-10.608zM58.851 95.177l25.76 6.897c-.521.64-1.043 1.278-1.563 1.918-11.93 14.681-21.438 27.034-28.333 36.807l-32.724-8.762 36.86-36.86zm27.576 101.296l-8.762-32.725c9.228-6.502 21.704-16.006 38.725-29.893l6.896 25.758-36.859 36.86zM165.55 71.831c-3.779 3.779-29.33 26.354-55.499 47.832-21.787 17.882-35.829 28.351-44.846 34.499-.273.164-.538.34-.785.534-.682.461-1.342.903-1.964 1.313.458-.693.958-1.438 1.478-2.205.085-.118.167-.238.246-.361 6.13-9.009 16.621-23.094 34.623-45.028 21.481-26.174 44.054-51.722 47.831-55.498a13.286 13.286 0 019.457-3.918c3.573 0 6.932 1.392 9.458 3.918 5.215 5.215 5.215 13.699.001 18.914z"/>
</svg>