<?xml version="1.0" encoding="iso-8859-1"?>
<!-- Generator: Adobe Illustrator 18.0.0, SVG Export Plug-In . SVG Version: 6.00 Build 0)  -->
<!DOCTYPE svg PUBLIC "-//W3C//DTD SVG 1.1//EN" "http://www.w3.org/Graphics/SVG/1.1/DTD/svg11.dtd">
<svg version="1.1" id="Capa_1" xmlns="http://www.w3.org/2000/svg" xmlns:xlink="http://www.w3.org/1999/xlink" x="0px" y="0px"
	 viewBox="0 0 281.981 281.981" style="enable-background:new 0 0 281.981 281.981;" xml:space="preserve">
<path d="M248.924,213.317l30.86-30.86c1.406-1.407,2.196-3.314,2.196-5.304c0-1.989-0.79-3.896-2.197-5.304
	c-11.076-11.075-25.803-17.176-41.466-17.176c-13.135,0-25.601,4.304-35.817,12.219l-50.902-50.902l78.186-78.186
	c2.929-2.93,2.929-7.678,0-10.608c-2.929-2.927-7.677-2.929-10.607,0l-78.187,78.186L62.804,27.196
	c-2.93-2.928-7.678-2.928-10.607,0c-2.929,2.93-2.929,7.678,0,10.607l78.186,78.186l-50.902,50.902
	c-10.217-7.916-22.682-12.219-35.816-12.219c-15.663,0-30.391,6.1-41.467,17.176C0.79,173.257,0,175.164,0,177.153
	c0,1.989,0.79,3.896,2.196,5.304l30.859,30.859L2.196,244.176c-2.929,2.93-2.929,7.678,0.001,10.607
	c1.464,1.464,3.384,2.196,5.303,2.196c1.919,0,3.839-0.733,5.304-2.197l30.859-30.859l30.86,30.86
	c1.465,1.464,3.385,2.196,5.304,2.196c1.919,0,3.839-0.733,5.304-2.196c11.076-11.076,17.176-25.803,17.176-41.468
	c-0.001-13.134-4.304-25.599-12.219-35.815l50.902-50.902l50.906,50.906c-17.754,22.98-16.113,56.212,4.953,77.279
	c1.407,1.407,3.314,2.197,5.304,2.197c1.989,0,3.896-0.79,5.304-2.196l30.859-30.859l30.859,30.859
	c1.465,1.464,3.385,2.196,5.304,2.196c1.919,0,3.839-0.732,5.304-2.196c2.929-2.93,2.929-7.678,0-10.607L248.924,213.317z
	 M79.376,238.422l-30.405-30.405c0,0-0.003-0.003-0.005-0.005c-0.002-0.002-0.003-0.003-0.005-0.005l-30.403-30.402
	c7.299-5.154,15.989-7.931,25.106-7.931c11.657,0,22.616,4.539,30.859,12.783c8.243,8.242,12.782,19.202,12.783,30.859
	C87.307,222.433,84.529,231.124,79.376,238.422z M202.609,238.418c-11.977-17.021-10.361-40.753,4.847-55.96
	c8.243-8.244,19.203-12.784,30.861-12.784c9.117,0,17.808,2.777,25.105,7.931l-30.4,30.4c-0.003,0.003-0.007,0.006-0.01,0.009
	c-0.003,0.003-0.006,0.007-0.009,0.01L202.609,238.418z"/>
<g>
</g>
<g>
</g>
<g>
</g>
<g>
</g>
<g>
</g>
<g>
</g>
<g>
</g>
<g>
</g>
<g>
</g>
<g>
</g>
<g>
</g>
<g>
</g>
<g>
</g>
<g>
</g>
<g>
</g>
</svg>
