<svg xmlns="http://www.w3.org/2000/svg" viewBox="0 0 207.964 207.964">
  <path d="M129.553 122.285H78.411a7.5 7.5 0 000 15h18.07v63.179a7.5 7.5 0 0015 0v-63.179h18.072a7.5 7.5 0 000-15zM145.449 17.175C134.372 6.1 119.646 0 103.98 0 71.646.001 45.339 26.307 45.339 58.641c0 15.665 6.101 30.392 17.176 41.468 11.076 11.077 25.8 17.176 41.461 17.176h.004c32.335 0 58.643-26.307 58.644-58.643.001-15.664-6.099-30.391-17.175-41.467zm-41.468 85.11c-11.656.001-22.615-4.539-30.858-12.782-8.243-8.244-12.783-19.205-12.784-30.862 0-24.063 19.578-43.64 43.642-43.641 11.658 0 22.619 4.539 30.862 12.782 8.243 8.243 12.782 19.202 12.782 30.859-.001 24.065-19.58 43.644-43.644 43.644z"/>
  <path d="M113.748 64.059a2.376 2.376 0 01-1.687.699 2.374 2.374 0 01-1.685-.699 2.373 2.373 0 01-.698-1.685c0-.369.091-1.079.699-1.686a5 5 0 10-7.071-7.071 12.303 12.303 0 00-3.627 8.757c0 3.308 1.288 6.418 3.626 8.755a12.297 12.297 0 008.756 3.629h.002c3.307 0 6.416-1.289 8.755-3.627a5 5 0 00-7.07-7.072zM134.458 40.434a5 5 0 00-7.071.001 2.367 2.367 0 01-1.684.698 2.377 2.377 0 01-1.686-.698 2.386 2.386 0 01.001-3.371 5 5 0 00-7.072-7.07c-4.827 4.829-4.827 12.685 0 17.512a12.304 12.304 0 008.755 3.627h.001a12.3 12.3 0 008.756-3.627 5 5 0 000-7.072zM107.179 40.434a5 5 0 00-7.071.001 2.37 2.37 0 01-1.685.699 2.386 2.386 0 01-1.684-4.07 5 5 0 00-7.072-7.07c-4.827 4.829-4.827 12.685 0 17.511 2.339 2.34 5.449 3.629 8.757 3.629s6.418-1.289 8.757-3.628a5.002 5.002 0 00-.002-7.072z"/>
</svg>