<?xml version="1.0" encoding="iso-8859-1"?>
<!-- Generator: Adobe Illustrator 18.0.0, SVG Export Plug-In . SVG Version: 6.00 Build 0)  -->
<!DOCTYPE svg PUBLIC "-//W3C//DTD SVG 1.1//EN" "http://www.w3.org/Graphics/SVG/1.1/DTD/svg11.dtd">
<svg version="1.1" id="Capa_1" xmlns="http://www.w3.org/2000/svg" xmlns:xlink="http://www.w3.org/1999/xlink" x="0px" y="0px"
	 viewBox="0 0 159.518 159.518" style="enable-background:new 0 0 159.518 159.518;" xml:space="preserve">
<path d="M134.207,32.503c-14.669-7.335-34.005-11.374-54.448-11.374c-20.443,0-39.78,4.039-54.45,11.374
	C8.989,40.664,0,52.119,0,64.758v30c0,12.64,8.989,24.095,25.31,32.256c14.669,7.334,34.006,11.374,54.45,11.374
	c20.442,0,39.779-4.04,54.448-11.374c16.321-8.161,25.31-19.616,25.31-32.256v-30C159.518,52.119,150.529,40.664,134.207,32.503z
	 M79.76,36.129c38.163,0,64.758,15.088,64.758,28.629c0,13.541-26.595,28.63-64.758,28.63C41.596,93.388,15,78.3,15,64.758
	C15,51.217,41.596,36.129,79.76,36.129z M79.76,123.388C41.596,123.388,15,108.3,15,94.758v-4.063
	c3.017,2.27,6.451,4.389,10.31,6.319c14.669,7.334,34.006,11.374,54.45,11.374c20.442,0,39.779-4.04,54.448-11.374
	c3.859-1.93,7.293-4.049,10.31-6.319v4.063C144.518,108.3,117.922,123.388,79.76,123.388z"/>
<g>
</g>
<g>
</g>
<g>
</g>
<g>
</g>
<g>
</g>
<g>
</g>
<g>
</g>
<g>
</g>
<g>
</g>
<g>
</g>
<g>
</g>
<g>
</g>
<g>
</g>
<g>
</g>
<g>
</g>
</svg>
