<?xml version="1.0" encoding="iso-8859-1"?>
<!-- Generator: Adobe Illustrator 18.0.0, SVG Export Plug-In . SVG Version: 6.00 Build 0)  -->
<!DOCTYPE svg PUBLIC "-//W3C//DTD SVG 1.1//EN" "http://www.w3.org/Graphics/SVG/1.1/DTD/svg11.dtd">
<svg version="1.1" id="Capa_1" xmlns="http://www.w3.org/2000/svg" xmlns:xlink="http://www.w3.org/1999/xlink" x="0px" y="0px"
	 viewBox="0 0 208.379 208.379" style="enable-background:new 0 0 208.379 208.379;" xml:space="preserve">
<path d="M193.478,193.379h-32.184v-20.27c5.652-0.912,11.12-2.824,16.098-5.705c14.549-8.417,23.586-24.071,23.586-40.853
	c0-16.781-9.037-32.434-23.585-40.852c-7.156-4.142-15.316-6.331-23.599-6.331h-52.025V7.5c0-4.142-3.357-7.5-7.5-7.5H14.901
	c-4.143,0-7.5,3.358-7.5,7.5v158.735c0,4.142,3.357,7.5,7.5,7.5h12.5v19.644h-12.5c-4.143,0-7.5,3.358-7.5,7.5
	c0,4.142,3.357,7.5,7.5,7.5h178.576c4.143,0,7.5-3.358,7.5-7.5C200.978,196.737,197.62,193.379,193.478,193.379z M146.294,173.735
	v19.644h-44.446v-19.644H146.294z M86.769,15v24.684H22.401V15H86.769z M22.401,54.684h64.367v32.184c0,4.142,3.357,7.5,7.5,7.5
	h15.116L89.312,114.44c-2.929,2.929-2.929,7.678,0,10.606c1.465,1.464,3.385,2.197,5.304,2.197c1.919,0,3.839-0.732,5.304-2.197
	l30.679-30.679h12.247l-20.073,20.073c-2.93,2.929-2.93,7.677-0.001,10.606c1.465,1.465,3.384,2.197,5.304,2.197
	c1.919,0,3.839-0.732,5.303-2.197l29.388-29.387c2.477,0.72,4.87,1.723,7.115,3.021c9.93,5.746,16.098,16.425,16.098,27.87
	c0,11.446-6.168,22.125-16.099,27.87c-4.877,2.823-10.438,4.314-16.085,4.314H22.401V54.684z M42.401,173.735h44.446v19.644H42.401
	V173.735z"/>
<g>
</g>
<g>
</g>
<g>
</g>
<g>
</g>
<g>
</g>
<g>
</g>
<g>
</g>
<g>
</g>
<g>
</g>
<g>
</g>
<g>
</g>
<g>
</g>
<g>
</g>
<g>
</g>
<g>
</g>
</svg>
