<?xml version="1.0" encoding="iso-8859-1"?>
<!-- Generator: Adobe Illustrator 18.0.0, SVG Export Plug-In . SVG Version: 6.00 Build 0)  -->
<!DOCTYPE svg PUBLIC "-//W3C//DTD SVG 1.1//EN" "http://www.w3.org/Graphics/SVG/1.1/DTD/svg11.dtd">
<svg version="1.1" id="Capa_1" xmlns="http://www.w3.org/2000/svg" xmlns:xlink="http://www.w3.org/1999/xlink" x="0px" y="0px"
	 viewBox="0 0 290.338 290.338" style="enable-background:new 0 0 290.338 290.338;" xml:space="preserve">
<path d="M289.532,167.866l-57.133-113.07c-4.887-9.753-15.112-12.355-20.384-12.355H78.32c-5.271,0-15.495,2.601-20.372,12.333
	L0.806,167.867c-0.896,1.775-1.052,3.834-0.431,5.724c0.621,1.89,1.968,3.455,3.743,4.352l37.838,19.115
	c3.695,1.867,8.208,0.386,10.076-3.312l23.337-46.184v9.702l-22.463,81.132c-0.625,2.258-0.159,4.678,1.26,6.542
	c1.418,1.864,3.626,2.959,5.969,2.959h170.068c0.004,0,0.012-0.001,0.02,0c4.143,0,7.5-3.357,7.5-7.5c0-0.892-0.155-1.747-0.44-2.54
	l-22.313-80.593v-9.702l23.337,46.184c1.868,3.695,6.38,5.18,10.076,3.312l37.838-19.115c1.775-0.897,3.122-2.463,3.743-4.352
	C290.584,171.701,290.429,169.642,289.532,167.866z M145.286,107.217L122.733,57.44h45.105L145.286,107.217z M42.026,180.288
	l-24.45-12.352L71.348,61.516c1.891-3.773,6.6-4.057,7.049-4.075h27.869l30.786,67.95l-11.498,25.376H90.369v-34.676
	c0-3.473-2.384-6.49-5.762-7.296c-3.374-0.801-6.865,0.813-8.433,3.913L42.026,180.288z M220.345,232.897H69.993l18.587-67.131
	h43.034l-31.075,48.283c-2.242,3.482-1.235,8.124,2.248,10.365c1.256,0.809,2.661,1.194,4.052,1.194c2.465,0,4.88-1.215,6.313-3.442
	l32.207-50.043l32.207,50.043c1.434,2.228,3.848,3.442,6.313,3.442c1.39,0,2.797-0.386,4.052-1.194
	c3.483-2.241,4.49-6.883,2.248-10.365l-31.075-48.283h42.653L220.345,232.897z M248.311,180.288l-34.148-67.58
	c-1.567-3.1-5.057-4.712-8.433-3.913c-3.378,0.806-5.762,3.823-5.762,7.296v34.676h-57.947l42.284-93.326h27.71
	c0.05,0,5.019,0.175,6.983,4.098l53.763,106.398L248.311,180.288z"/>
<g>
</g>
<g>
</g>
<g>
</g>
<g>
</g>
<g>
</g>
<g>
</g>
<g>
</g>
<g>
</g>
<g>
</g>
<g>
</g>
<g>
</g>
<g>
</g>
<g>
</g>
<g>
</g>
<g>
</g>
</svg>
