<svg xmlns="http://www.w3.org/2000/svg" viewBox="0 0 247.679 247.679">
  <path d="M208.033 67.726c-23.411-13.723-54.099-21.593-84.193-21.593-30.095 0-60.782 7.87-84.193 21.593C14.08 82.713 0 102.641 0 123.841s14.08 41.127 39.646 56.113c23.411 13.722 54.098 21.592 84.193 21.592s60.782-7.87 84.193-21.592c25.566-14.986 39.646-34.914 39.646-56.113s-14.079-41.128-39.645-56.115zm-5.903 73.738c-21.638 6.342-50.174 9.979-78.291 9.979-28.118 0-56.653-3.637-78.291-9.979C23.135 134.895 15 127.326 15 123.841c0-3.485 8.136-11.056 30.548-17.625 21.638-6.342 50.174-9.979 78.291-9.979 28.117 0 56.653 3.637 78.291 9.979 22.413 6.569 30.549 14.14 30.549 17.625 0 3.485-8.135 11.054-30.549 17.623zm-78.291-80.33c40.66 0 78.722 15.23 97.183 35.882-25.772-10.748-65.468-15.778-97.183-15.778-31.715 0-71.409 5.03-97.182 15.778 18.461-20.653 56.523-35.882 97.182-35.882zm0 125.412c-40.66 0-78.722-15.23-97.182-35.882 25.772 10.748 65.467 15.778 97.182 15.778 31.715 0 71.41-5.03 97.183-15.778-18.46 20.652-56.522 35.882-97.183 35.882z"/>
</svg>