<?xml version="1.0" encoding="iso-8859-1"?>
<!-- Generator: Adobe Illustrator 18.0.0, SVG Export Plug-In . SVG Version: 6.00 Build 0)  -->
<!DOCTYPE svg PUBLIC "-//W3C//DTD SVG 1.1//EN" "http://www.w3.org/Graphics/SVG/1.1/DTD/svg11.dtd">
<svg version="1.1" id="Capa_1" xmlns="http://www.w3.org/2000/svg" xmlns:xlink="http://www.w3.org/1999/xlink" x="0px" y="0px"
	 viewBox="0 0 284.539 284.539" style="enable-background:new 0 0 284.539 284.539;" xml:space="preserve">
<g>
	<path d="M99.482,126.441c4.142,0,7.5-3.357,7.5-7.5s-3.358-7.5-7.5-7.5H77.8c-4.142,0-7.5,3.357-7.5,7.5s3.358,7.5,7.5,7.5h5.843
		v31.656H77.8c-4.142,0-7.5,3.357-7.5,7.5c0,4.143,3.358,7.5,7.5,7.5h21.683c4.142,0,7.5-3.357,7.5-7.5c0-4.143-3.358-7.5-7.5-7.5
		h-5.84v-31.656H99.482z"/>
	<path d="M226.927,84.658H57.612C25.845,84.658,0,110.503,0,142.27s25.845,57.611,57.612,57.611h169.314
		c31.768,0,57.612-25.845,57.612-57.611S258.694,84.658,226.927,84.658z M226.927,184.881H57.612
		C34.116,184.881,15,165.766,15,142.27s19.116-42.611,42.612-42.611h169.314c23.497,0,42.612,19.115,42.612,42.611
		S250.423,184.881,226.927,184.881z"/>
	<path d="M206.739,126.441c4.142,0,7.5-3.357,7.5-7.5s-3.358-7.5-7.5-7.5h-21.683c-4.142,0-7.5,3.357-7.5,7.5s3.358,7.5,7.5,7.5
		h5.841v31.656h-5.841c-4.142,0-7.5,3.357-7.5,7.5c0,4.143,3.358,7.5,7.5,7.5h21.682c4.142,0,7.5-3.357,7.5-7.5
		c0-4.143-3.358-7.5-7.5-7.5h-5.841v-31.656H206.739z"/>
</g>
<g>
</g>
<g>
</g>
<g>
</g>
<g>
</g>
<g>
</g>
<g>
</g>
<g>
</g>
<g>
</g>
<g>
</g>
<g>
</g>
<g>
</g>
<g>
</g>
<g>
</g>
<g>
</g>
<g>
</g>
</svg>
