<svg xmlns="http://www.w3.org/2000/svg" viewBox="0 0 219.572 219.572">
  <path d="M142.213 151.025l15.631-48.109a7.5 7.5 0 00-2.725-8.385l-40.926-29.734a7.498 7.498 0 00-8.816 0L64.453 94.531a7.5 7.5 0 00-2.725 8.385l15.631 48.109a7.501 7.501 0 007.133 5.183h50.588a7.5 7.5 0 007.133-5.183zm-52.272-9.817l-12.264-37.745 32.107-23.329 32.109 23.329-12.264 37.745H89.941z"/>
  <path d="M203.563 166.82c10.153-16.632 16.01-36.162 16.01-57.034 0-26.775-9.64-51.337-25.624-70.412a7.405 7.405 0 00-1.046-1.235c-11.05-12.801-25-23.03-40.82-29.659a7.474 7.474 0 00-1-.41C138.327 2.873 124.387.001 109.786.001 95.3.001 81.464 2.828 68.791 7.947a7.45 7.45 0 00-1.011.414c-15.938 6.625-29.993 16.898-41.11 29.777a7.45 7.45 0 00-1.041 1.232C9.641 58.445 0 83.009 0 109.786c0 20.873 5.858 40.403 16.011 57.036.216.433.472.841.764 1.222 19.44 30.926 53.862 51.527 93.011 51.527s73.569-20.6 93.011-51.525c.292-.381.549-.791.766-1.226zM190.325 59.866a94.144 94.144 0 0113.972 42.655L181.78 86.164l8.545-26.298zm-57.879-42.12l-22.431 16.297-22.546-16.382a94.705 94.705 0 0122.316-2.66c7.809 0 15.397.956 22.661 2.745zM37.791 86.163L15.275 102.52a94.137 94.137 0 0113.973-42.656l8.543 26.299zm-.323 84.822h27.575l8.582 26.412c-14.074-5.831-26.447-14.957-36.157-26.412zm53.66 31.738l-13.503-41.556a7.5 7.5 0 00-7.133-5.182H27.048a94.078 94.078 0 01-11.405-35.19l35.373-25.699a7.5 7.5 0 002.725-8.385L40.313 45.379a95.227 95.227 0 0129.903-21.712l35.391 25.714a7.488 7.488 0 004.408 1.433 7.486 7.486 0 004.408-1.433l35.211-25.584a95.251 95.251 0 0129.626 21.584L165.83 86.71a7.501 7.501 0 002.725 8.386l35.375 25.699a94.08 94.08 0 01-11.406 35.19H149.08a7.5 7.5 0 00-7.133 5.183l-13.501 41.555a94.928 94.928 0 01-18.661 1.849 94.888 94.888 0 01-18.657-1.849zm54.82-5.327l8.581-26.411h27.574c-9.708 11.455-22.082 20.58-36.155 26.411z"/>
</svg>