<svg xmlns="http://www.w3.org/2000/svg" viewBox="0 0 240.305 240.305">
  <path d="M219.218 21.104C205.609 7.495 187.516 0 168.27 0s-37.339 7.495-50.946 21.104L98.649 39.777C85.039 53.386 77.544 71.48 77.544 90.726c0 3.275.234 6.513.661 9.705l.001 51.078-23.972 23.971c-5.002-1.332-10.556-.051-14.48 3.873L4.411 214.698c-5.857 5.858-5.857 15.355.001 21.213a14.953 14.953 0 0010.606 4.393c3.839 0 7.678-1.464 10.607-4.393l35.344-35.345c3.923-3.924 5.205-9.477 3.873-14.479l23.972-23.972 51.075-.001c3.192.428 6.431.662 9.707.662h.006c19.243 0 37.335-7.495 50.942-21.103l18.675-18.675c28.091-28.093 28.091-73.803-.001-101.894zm-.082 76.761l-19.59-19.59 23.177-23.177c4.349 14.054 3.153 29.462-3.587 42.767zm-.577-52.746l-26.085 26.085-23.358-23.358 26.105-26.106a57.253 57.253 0 0113.39 9.971 56.821 56.821 0 019.948 13.408zm-109.305 85.95a57.248 57.248 0 01-9.97-13.39l26.106-26.107 23.358 23.357-26.106 26.106a57.22 57.22 0 01-13.388-9.966zM93.167 99.207c-.001-.017-.005-.032-.007-.048a57.806 57.806 0 01-.616-8.433c0-9.129 2.145-17.924 6.17-25.83l19.605 19.605L95.11 107.71a56.725 56.725 0 01-1.943-8.503zM132.462 84.5l29.584-29.583 23.358 23.358-29.583 29.583L132.462 84.5zm52.791-66.934l-23.208 23.208-19.605-19.605C150.347 17.145 159.141 15 168.27 15c5.846 0 11.554.881 16.983 2.566zM127.931 31.71a57.64 57.64 0 015.826-5.081l21.217 21.217-29.584 29.583-21.217-21.217a57.791 57.791 0 015.083-5.828l18.675-18.674zM93.206 147.115l-.001-11.551a73.318 73.318 0 005.442 6.111 73.063 73.063 0 006.108 5.439l-11.549.001zm56.39.661c-2.845 0-5.658-.208-8.423-.615l-.063-.009a56.81 56.81 0 01-8.5-1.943L155.819 122l19.607 19.607c-7.906 4.024-16.699 6.168-25.826 6.168l-.004.001zm40.34-16.709a57.896 57.896 0 01-5.827 5.082L162.89 114.93l29.584-29.584 21.212 21.212a57.244 57.244 0 01-5.076 5.833l-18.674 18.676z"/>
</svg>